<svg xmlns="http://www.w3.org/2000/svg" version="1.1" xmlns:xlink="http://www.w3.org/1999/xlink" xmlns:svgjs="http://svgjs.dev/svgjs" width="2000" height="1252" viewBox="0 0 2000 1252"><g transform="matrix(1,0,0,1,-1.2121212121212466,-2.01935483870966)"><svg viewBox="0 0 396 248" data-background-color="#ffffff" preserveAspectRatio="xMidYMid meet" height="1252" width="2000" xmlns="http://www.w3.org/2000/svg" xmlns:xlink="http://www.w3.org/1999/xlink"><g id="tight-bounds" transform="matrix(1,0,0,1,0.2400000000000091,0.4000000000000057)"><svg viewBox="0 0 395.52 247.2" height="247.2" width="395.52"><g><svg></svg></g><g><svg viewBox="0 0 395.52 247.2" height="247.2" width="395.52"><g transform="matrix(1,0,0,1,39.55199999999999,79.48712791991102)"><svg viewBox="0 0 316.416 88.22574416017797" height="88.22574416017797" width="316.416"><g><svg viewBox="0 0 316.416 88.22574416017797" height="88.22574416017797" width="316.416"><g><svg viewBox="0 0 316.416 88.22574416017797" height="88.22574416017797" width="316.416"><g><svg viewBox="0 0 316.416 88.22574416017797" height="88.22574416017797" width="316.416"><g id="textblocktransform"><svg viewBox="0 0 316.416 88.22574416017797" height="88.22574416017797" width="316.416" id="textblock"><g><svg viewBox="0 0 316.416 88.22574416017797" height="88.22574416017797" width="316.416"><g transform="matrix(1,0,0,1,0,0)"><svg width="316.416" viewBox="4.5 -37 134.84 37.6" height="88.22574416017797" data-palette-color="#755bb4"><path d="M14.6 0.4L14.6 0.4Q11.55 0.4 8.83 0.25 6.1 0.1 4.5-0.1L4.5-0.1 4.5-34.9Q6.25-35.1 8.85-35.25 11.45-35.4 14.8-35.4L14.8-35.4Q21.2-35.4 24.65-32.98 28.1-30.55 28.1-26.4L28.1-26.4Q28.1-23.65 26.63-21.73 25.15-19.8 22.35-18.55L22.35-18.55Q25.75-17.35 27.5-15.23 29.25-13.1 29.25-10L29.25-10Q29.25-5.25 25.5-2.43 21.75 0.4 14.6 0.4ZM9.25-31.3L9.25-19.9 14.75-19.9Q18.7-19.9 21.03-21.55 23.35-23.2 23.35-25.8L23.35-25.8Q23.35-28.6 21.05-30.08 18.75-31.55 14.75-31.55L14.75-31.55Q13.1-31.55 11.75-31.48 10.4-31.4 9.25-31.3L9.25-31.3ZM14.95-3.55L14.95-3.55Q19.4-3.55 21.9-5.15 24.4-6.75 24.4-9.8L24.4-9.8Q24.4-12.8 21.95-14.5 19.5-16.2 14.95-16.2L14.95-16.2 9.25-16.2 9.25-3.85Q11.9-3.55 14.95-3.55ZM46.45 0.6L46.45 0.6Q42.75 0.6 39.8-1.13 36.85-2.85 35.17-5.93 33.5-9 33.5-13L33.5-13Q33.5-17.2 35.2-20.25 36.9-23.3 39.85-24.95 42.8-26.6 46.45-26.6L46.45-26.6Q50.1-26.6 53.02-24.95 55.95-23.3 57.67-20.28 59.4-17.25 59.4-13.1L59.4-13.1Q59.4-8.95 57.7-5.88 56-2.8 53.07-1.1 50.15 0.6 46.45 0.6ZM46.45-3.4L46.45-3.4Q50.4-3.4 52.6-6.08 54.8-8.75 54.8-13L54.8-13Q54.8-15.6 53.7-17.78 52.6-19.95 50.72-21.28 48.85-22.6 46.45-22.6L46.45-22.6Q42.5-22.6 40.3-20 38.1-17.4 38.1-13.1L38.1-13.1Q38.1-10.5 39.2-8.28 40.3-6.05 42.17-4.73 44.05-3.4 46.45-3.4ZM75.34 0.6L75.34 0.6Q72.09 0.6 69.45-1.05 66.8-2.7 65.22-5.73 63.65-8.75 63.65-12.85L63.65-12.85Q63.65-16.75 65.22-19.85 66.8-22.95 69.57-24.78 72.34-26.6 75.95-26.6L75.95-26.6Q78.2-26.6 80.02-25.83 81.84-25.05 83.2-23.9L83.2-23.9 83.2-26 87.3-26 87.3-6.3Q87.3-4.4 88.22-3.83 89.15-3.25 90.25-3.25L90.25-3.25 89.3 0.25Q84.5 0.25 83.5-3.65L83.5-3.65Q82.34-2.05 80.37-0.73 78.4 0.6 75.34 0.6ZM76.34-3.4L76.34-3.4Q78.25-3.4 79.95-4.33 81.65-5.25 82.8-6.65L82.8-6.65 82.8-20.6Q81.45-21.55 79.82-22.13 78.2-22.7 76.4-22.7L76.4-22.7Q74-22.7 72.17-21.48 70.34-20.25 69.3-18.07 68.25-15.9 68.25-13L68.25-13Q68.25-10.2 69.3-8.03 70.34-5.85 72.2-4.63 74.05-3.4 76.34-3.4ZM100.74 0L96.24 0 96.24-26 100.59-26 100.59-20.35Q101.24-22 102.34-23.43 103.44-24.85 105.09-25.73 106.74-26.6 108.94-26.6L108.94-26.6Q109.69-26.6 110.44-26.53 111.19-26.45 111.69-26.3L111.69-26.3 110.34-21.65Q109.39-22.05 108.09-22.05L108.09-22.05Q106.24-22.05 104.57-21 102.89-19.95 101.82-17.75 100.74-15.55 100.74-12.15L100.74-12.15 100.74 0ZM124.54 0.6L124.54 0.6Q121.34 0.6 118.69-1.05 116.04-2.7 114.49-5.73 112.94-8.75 112.94-12.85L112.94-12.85Q112.94-16.8 114.52-19.9 116.09-23 118.72-24.8 121.34-26.6 124.49-26.6L124.49-26.6Q127.09-26.6 128.97-25.55 130.84-24.5 131.89-23.4L131.89-23.4 131.89-37 136.39-37 136.39-6.3Q136.39-4.4 137.31-3.83 138.24-3.25 139.34-3.25L139.34-3.25 138.39 0.25Q133.64 0.25 132.59-3.55L132.59-3.55Q131.49-2 129.52-0.7 127.54 0.6 124.54 0.6ZM125.54-3.4L125.54-3.4Q127.39-3.4 129.06-4.28 130.74-5.15 131.89-6.55L131.89-6.55 131.89-19.45Q130.94-20.65 129.24-21.68 127.54-22.7 125.49-22.7L125.49-22.7Q123.09-22.7 121.29-21.4 119.49-20.1 118.52-17.93 117.54-15.75 117.54-13L117.54-13Q117.54-10.25 118.59-8.08 119.64-5.9 121.47-4.65 123.29-3.4 125.54-3.4Z" opacity="1" transform="matrix(1,0,0,1,0,0)" fill="#755bb4" class="wordmark-text-0" data-fill-palette-color="primary" id="text-0"></path></svg></g></svg></g></svg></g></svg></g><g></g></svg></g></svg></g></svg></g><g><path d="M0 247.2v-247.2h395.52v247.2zM387.564 239.244v-231.288h-379.608v231.288z" fill="#755bb4" fill-rule="nonzero" stroke="none" stroke-width="1" stroke-linecap="butt" stroke-linejoin="miter" stroke-miterlimit="10" stroke-dasharray="" stroke-dashoffset="0" font-family="none" font-weight="none" font-size="none" text-anchor="none" style="mix-blend-mode: normal" data-fill-palette-color="tertiary"></path></g></svg></g><defs></defs></svg><rect width="395.52" height="247.2" fill="none" stroke="none" visibility="hidden"></rect></g></svg></g></svg>